<svg width="33" height="34" viewBox="0 0 33 34" fill="none" xmlns="http://www.w3.org/2000/svg">
<path d="M16.6802 0.911621C13.4662 0.911621 10.3245 1.86467 7.65217 3.65024C4.97987 5.43581 2.89706 7.97372 1.66714 10.943C0.437217 13.9123 0.115412 17.1796 0.742422 20.3318C1.36943 23.484 2.91709 26.3795 5.1897 28.6521C7.4623 30.9247 10.3578 32.4724 13.51 33.0994C16.6622 33.7264 19.9295 33.4046 22.8988 32.1747C25.8681 30.9447 28.406 28.8619 30.1916 26.1896C31.9771 23.5173 32.9302 20.3756 32.9302 17.1616C32.9256 12.8532 31.2121 8.72264 28.1656 5.67616C25.1192 2.62968 20.9886 0.916171 16.6802 0.911621ZM16.6802 30.9116C13.9607 30.9116 11.3023 30.1052 9.04109 28.5943C6.77992 27.0835 5.01754 24.936 3.97684 22.4235C2.93613 19.911 2.66384 17.1464 3.19439 14.4791C3.72493 11.8119 5.03449 9.36187 6.95746 7.4389C8.88044 5.51593 11.3305 4.20637 13.9977 3.67582C16.6649 3.14528 19.4296 3.41757 21.9421 4.45828C24.4546 5.49898 26.602 7.26135 28.1129 9.52253C29.6238 11.7837 30.4302 14.4421 30.4302 17.1616C30.426 20.8071 28.9761 24.302 26.3983 26.8798C23.8206 29.4575 20.3256 30.9075 16.6802 30.9116ZM9.18018 14.0366C9.18018 13.6658 9.29015 13.3033 9.49618 12.9949C9.7022 12.6866 9.99504 12.4463 10.3377 12.3043C10.6803 12.1624 11.0573 12.1253 11.421 12.1976C11.7847 12.27 12.1188 12.4486 12.381 12.7108C12.6432 12.973 12.8218 13.3071 12.8942 13.6708C12.9665 14.0345 12.9294 14.4115 12.7875 14.7542C12.6455 15.0968 12.4052 15.3896 12.0969 15.5956C11.7885 15.8017 11.426 15.9116 11.0552 15.9116C10.5579 15.9116 10.081 15.7141 9.72936 15.3624C9.37773 15.0108 9.18018 14.5339 9.18018 14.0366ZM24.1802 14.0366C24.1802 14.4075 24.0702 14.77 23.8642 15.0783C23.6582 15.3867 23.3653 15.627 23.0227 15.7689C22.6801 15.9108 22.3031 15.9479 21.9394 15.8756C21.5757 15.8032 21.2416 15.6247 20.9794 15.3624C20.7171 15.1002 20.5386 14.7661 20.4662 14.4024C20.3939 14.0387 20.431 13.6617 20.5729 13.3191C20.7148 12.9765 20.9551 12.6836 21.2635 12.4776C21.5718 12.2716 21.9343 12.1616 22.3052 12.1616C22.8025 12.1616 23.2794 12.3592 23.631 12.7108C23.9826 13.0624 24.1802 13.5393 24.1802 14.0366Z" fill="#201B10"/>
<path d="M23.5038 20.0295C24.1757 20.2797 24.5258 21.0338 24.1768 21.6601C23.5394 22.8041 22.6445 23.7917 21.5563 24.5408C20.1098 25.5365 18.3918 26.0626 16.6358 26.0475C14.8799 26.0324 13.1712 25.4769 11.742 24.4566C10.6667 23.6889 9.78899 22.6861 9.17128 21.5313C8.83312 20.8991 9.19615 20.1511 9.87222 19.9125C10.5483 19.6739 11.2787 20.0395 11.658 20.648C12.07 21.3088 12.6099 21.8861 13.2506 22.3435C14.2457 23.054 15.4355 23.4408 16.6581 23.4513C17.8808 23.4618 19.077 23.0955 20.0842 22.4022C20.7326 21.9559 21.2824 21.3879 21.7057 20.7342C22.0953 20.1324 22.8319 19.7793 23.5038 20.0295Z" fill="#201B10"/>
</svg>
