<svg width="33" height="32" viewBox="0 0 33 32" fill="none" xmlns="http://www.w3.org/2000/svg">
<path d="M16.5005 9.62335V16.1266L20.565 20.1911" stroke="#201B10" stroke-width="2.43872" stroke-linecap="round" stroke-linejoin="round"/>
<path d="M7.08167 26.6059C12.4846 31.48 20.6733 31.5193 26.0231 26.7094L26.6871 27.3735C20.9655 32.5558 12.1825 32.5043 6.4176 27.269L7.08167 26.6059ZM27.6432 6.0434C32.8783 11.8081 32.9284 20.5912 27.7477 26.3129L27.0836 25.6489C31.8935 20.299 31.8546 12.1093 26.9801 6.70648L27.6432 6.0434ZM2.38635 14.7944C2.22396 16.7371 2.46079 18.6954 3.08655 20.5473C3.71211 22.3987 4.71134 24.0986 6.01819 25.5444L5.3551 26.2075C3.94586 24.6583 2.86877 22.8334 2.1969 20.8442C1.52526 18.8556 1.27469 16.7521 1.45569 14.6664L2.38635 14.7944ZM7.4342 7.33441L7.42932 8.27289L6.34534 8.26801L6.9635 7.64984L7.27893 7.33344L7.4342 7.33441ZM6.31409 4.87933C12.0352 -0.302319 20.8178 -0.251189 26.5826 4.98285L25.9196 5.64594C20.5167 0.772647 12.3266 0.732909 6.97717 5.54242L6.31409 4.87933ZM4.49573 4.54828L3.56213 5.48187L3.55627 4.40082L4.49475 4.39496L4.49573 4.54828Z" stroke="#201B10" stroke-width="1.5"/>
</svg>
